<mxfile host="app.diagrams.net" modified="2023-09-28T07:32:17.800Z" agent="Mozilla/5.0 (Windows NT 10.0; Win64; x64; rv:109.0) Gecko/20100101 Firefox/117.0" version="21.7.5" etag="mZIeFx5nmiDnzKO-pWGW" type="github">
  <diagram name="Page-1" id="2rnfrZr76Kta0DigwWg5">
    <mxGraphModel>
      <root>
        <mxCell id="0" />
        <mxCell id="1" parent="0" />
      </root>
    </mxGraphModel>
  </diagram>
</mxfile>
